<svg width="278" height="432" viewBox="0 0 278 432" fill="none" xmlns="http://www.w3.org/2000/svg">
    <path opacity="0.5" d="M97.2812 424V412.547H98.7969V417.25H104.75V412.547H106.266V424H104.75V418.602H98.7969V424H97.2812ZM108.094 419.852C108.094 418.315 108.521 417.177 109.375 416.438C110.089 415.823 110.958 415.516 111.984 415.516C113.125 415.516 114.057 415.891 114.781 416.641C115.505 417.385 115.867 418.417 115.867 419.734C115.867 420.802 115.706 421.643 115.383 422.258C115.065 422.867 114.599 423.341 113.984 423.68C113.375 424.018 112.708 424.188 111.984 424.188C110.823 424.188 109.883 423.815 109.164 423.07C108.451 422.326 108.094 421.253 108.094 419.852ZM109.539 419.852C109.539 420.914 109.771 421.711 110.234 422.242C110.698 422.768 111.281 423.031 111.984 423.031C112.682 423.031 113.263 422.766 113.727 422.234C114.19 421.703 114.422 420.893 114.422 419.805C114.422 418.779 114.188 418.003 113.719 417.477C113.255 416.945 112.677 416.68 111.984 416.68C111.281 416.68 110.698 416.943 110.234 417.469C109.771 417.995 109.539 418.789 109.539 419.852ZM119.828 424L116.672 415.703H118.156L119.938 420.672C120.13 421.208 120.307 421.766 120.469 422.344C120.594 421.906 120.768 421.38 120.992 420.766L122.836 415.703H124.281L121.141 424H119.828ZM131.203 421.328L132.656 421.508C132.427 422.357 132.003 423.016 131.383 423.484C130.763 423.953 129.971 424.188 129.008 424.188C127.794 424.188 126.831 423.815 126.117 423.07C125.409 422.32 125.055 421.271 125.055 419.922C125.055 418.526 125.414 417.443 126.133 416.672C126.852 415.901 127.784 415.516 128.93 415.516C130.039 415.516 130.945 415.893 131.648 416.648C132.352 417.404 132.703 418.466 132.703 419.836C132.703 419.919 132.701 420.044 132.695 420.211H126.508C126.56 421.122 126.818 421.82 127.281 422.305C127.745 422.789 128.323 423.031 129.016 423.031C129.531 423.031 129.971 422.896 130.336 422.625C130.701 422.354 130.99 421.922 131.203 421.328ZM126.586 419.055H131.219C131.156 418.357 130.979 417.833 130.688 417.484C130.24 416.943 129.659 416.672 128.945 416.672C128.299 416.672 127.755 416.888 127.312 417.32C126.875 417.753 126.633 418.331 126.586 419.055ZM134.414 424V415.703H135.68V416.961C136.003 416.372 136.299 415.984 136.57 415.797C136.846 415.609 137.148 415.516 137.477 415.516C137.951 415.516 138.432 415.667 138.922 415.969L138.438 417.273C138.094 417.07 137.75 416.969 137.406 416.969C137.099 416.969 136.823 417.062 136.578 417.25C136.333 417.432 136.159 417.688 136.055 418.016C135.898 418.516 135.82 419.062 135.82 419.656V424H134.414Z" fill="#131821"/>
    <path opacity="0.5" d="M1.21875 424V412.547H2.77344L8.78906 421.539V412.547H10.2422V424H8.6875L2.67188 415V424H1.21875ZM12.0938 419.852C12.0938 418.315 12.5208 417.177 13.375 416.438C14.0885 415.823 14.9583 415.516 15.9844 415.516C17.125 415.516 18.0573 415.891 18.7812 416.641C19.5052 417.385 19.8672 418.417 19.8672 419.734C19.8672 420.802 19.7057 421.643 19.3828 422.258C19.0651 422.867 18.599 423.341 17.9844 423.68C17.375 424.018 16.7083 424.188 15.9844 424.188C14.8229 424.188 13.8828 423.815 13.1641 423.07C12.4505 422.326 12.0938 421.253 12.0938 419.852ZM13.5391 419.852C13.5391 420.914 13.7708 421.711 14.2344 422.242C14.6979 422.768 15.2812 423.031 15.9844 423.031C16.6823 423.031 17.263 422.766 17.7266 422.234C18.1901 421.703 18.4219 420.893 18.4219 419.805C18.4219 418.779 18.1875 418.003 17.7188 417.477C17.2552 416.945 16.6771 416.68 15.9844 416.68C15.2812 416.68 14.6979 416.943 14.2344 417.469C13.7708 417.995 13.5391 418.789 13.5391 419.852ZM21.5078 424V415.703H22.7734V416.961C23.0964 416.372 23.3932 415.984 23.6641 415.797C23.9401 415.609 24.2422 415.516 24.5703 415.516C25.0443 415.516 25.526 415.667 26.0156 415.969L25.5312 417.273C25.1875 417.07 24.8438 416.969 24.5 416.969C24.1927 416.969 23.9167 417.062 23.6719 417.25C23.4271 417.432 23.2526 417.688 23.1484 418.016C22.9922 418.516 22.9141 419.062 22.9141 419.656V424H21.5078ZM26.8516 424V415.703H28.1094V416.867C28.3698 416.461 28.7161 416.135 29.1484 415.891C29.5807 415.641 30.0729 415.516 30.625 415.516C31.2396 415.516 31.7422 415.643 32.1328 415.898C32.5286 416.154 32.8073 416.51 32.9688 416.969C33.625 416 34.4792 415.516 35.5312 415.516C36.3542 415.516 36.987 415.745 37.4297 416.203C37.8724 416.656 38.0938 417.357 38.0938 418.305V424H36.6953V418.773C36.6953 418.211 36.6484 417.807 36.5547 417.562C36.4661 417.312 36.3021 417.112 36.0625 416.961C35.8229 416.81 35.5417 416.734 35.2188 416.734C34.6354 416.734 34.151 416.93 33.7656 417.32C33.3802 417.706 33.1875 418.326 33.1875 419.18V424H31.7812V418.609C31.7812 417.984 31.6667 417.516 31.4375 417.203C31.2083 416.891 30.8333 416.734 30.3125 416.734C29.9167 416.734 29.5495 416.839 29.2109 417.047C28.8776 417.255 28.6354 417.56 28.4844 417.961C28.3333 418.362 28.2578 418.94 28.2578 419.695V424H26.8516ZM45.5938 422.977C45.0729 423.419 44.5703 423.732 44.0859 423.914C43.6068 424.096 43.0911 424.188 42.5391 424.188C41.6276 424.188 40.9271 423.966 40.4375 423.523C39.9479 423.076 39.7031 422.505 39.7031 421.812C39.7031 421.406 39.7943 421.036 39.9766 420.703C40.1641 420.365 40.4062 420.094 40.7031 419.891C41.0052 419.688 41.3438 419.534 41.7188 419.43C41.9948 419.357 42.4115 419.286 42.9688 419.219C44.1042 419.083 44.9401 418.922 45.4766 418.734C45.4818 418.542 45.4844 418.419 45.4844 418.367C45.4844 417.794 45.3516 417.391 45.0859 417.156C44.7266 416.839 44.1927 416.68 43.4844 416.68C42.8229 416.68 42.3333 416.797 42.0156 417.031C41.7031 417.26 41.4714 417.669 41.3203 418.258L39.9453 418.07C40.0703 417.482 40.276 417.008 40.5625 416.648C40.849 416.284 41.263 416.005 41.8047 415.812C42.3464 415.615 42.974 415.516 43.6875 415.516C44.3958 415.516 44.9714 415.599 45.4141 415.766C45.8568 415.932 46.1823 416.143 46.3906 416.398C46.599 416.648 46.7448 416.966 46.8281 417.352C46.875 417.591 46.8984 418.023 46.8984 418.648V420.523C46.8984 421.831 46.9271 422.659 46.9844 423.008C47.0469 423.352 47.1667 423.682 47.3438 424H45.875C45.7292 423.708 45.6354 423.367 45.5938 422.977ZM45.4766 419.836C44.9661 420.044 44.2005 420.221 43.1797 420.367C42.6016 420.451 42.1927 420.544 41.9531 420.648C41.7135 420.753 41.5286 420.906 41.3984 421.109C41.2682 421.307 41.2031 421.529 41.2031 421.773C41.2031 422.148 41.3438 422.461 41.625 422.711C41.9115 422.961 42.3281 423.086 42.875 423.086C43.4167 423.086 43.8984 422.969 44.3203 422.734C44.7422 422.495 45.0521 422.169 45.25 421.758C45.401 421.44 45.4766 420.971 45.4766 420.352V419.836ZM49.0547 424V412.547H50.4609V424H49.0547Z" fill="#131821"/>
    <path opacity="0.5" d="M193.234 424V412.547H197.555C198.315 412.547 198.896 412.583 199.297 412.656C199.859 412.75 200.331 412.93 200.711 413.195C201.091 413.456 201.396 413.823 201.625 414.297C201.859 414.771 201.977 415.292 201.977 415.859C201.977 416.833 201.667 417.659 201.047 418.336C200.427 419.008 199.307 419.344 197.688 419.344H194.75V424H193.234ZM194.75 417.992H197.711C198.69 417.992 199.385 417.81 199.797 417.445C200.208 417.081 200.414 416.568 200.414 415.906C200.414 415.427 200.292 415.018 200.047 414.68C199.807 414.336 199.49 414.109 199.094 414C198.839 413.932 198.367 413.898 197.68 413.898H194.75V417.992ZM203.711 424V415.703H204.977V416.961C205.299 416.372 205.596 415.984 205.867 415.797C206.143 415.609 206.445 415.516 206.773 415.516C207.247 415.516 207.729 415.667 208.219 415.969L207.734 417.273C207.391 417.07 207.047 416.969 206.703 416.969C206.396 416.969 206.12 417.062 205.875 417.25C205.63 417.432 205.456 417.688 205.352 418.016C205.195 418.516 205.117 419.062 205.117 419.656V424H203.711ZM214.734 421.328L216.188 421.508C215.958 422.357 215.534 423.016 214.914 423.484C214.294 423.953 213.503 424.188 212.539 424.188C211.326 424.188 210.362 423.815 209.648 423.07C208.94 422.32 208.586 421.271 208.586 419.922C208.586 418.526 208.945 417.443 209.664 416.672C210.383 415.901 211.315 415.516 212.461 415.516C213.57 415.516 214.477 415.893 215.18 416.648C215.883 417.404 216.234 418.466 216.234 419.836C216.234 419.919 216.232 420.044 216.227 420.211H210.039C210.091 421.122 210.349 421.82 210.812 422.305C211.276 422.789 211.854 423.031 212.547 423.031C213.062 423.031 213.503 422.896 213.867 422.625C214.232 422.354 214.521 421.922 214.734 421.328ZM210.117 419.055H214.75C214.688 418.357 214.51 417.833 214.219 417.484C213.771 416.943 213.19 416.672 212.477 416.672C211.831 416.672 211.286 416.888 210.844 417.32C210.406 417.753 210.164 418.331 210.117 419.055ZM217.398 421.523L218.789 421.305C218.867 421.862 219.083 422.289 219.438 422.586C219.797 422.883 220.297 423.031 220.938 423.031C221.583 423.031 222.062 422.901 222.375 422.641C222.688 422.375 222.844 422.065 222.844 421.711C222.844 421.393 222.706 421.143 222.43 420.961C222.237 420.836 221.758 420.677 220.992 420.484C219.961 420.224 219.245 420 218.844 419.812C218.448 419.62 218.146 419.357 217.938 419.023C217.734 418.685 217.633 418.312 217.633 417.906C217.633 417.536 217.716 417.195 217.883 416.883C218.055 416.565 218.286 416.302 218.578 416.094C218.797 415.932 219.094 415.797 219.469 415.688C219.849 415.573 220.255 415.516 220.688 415.516C221.339 415.516 221.909 415.609 222.398 415.797C222.893 415.984 223.258 416.24 223.492 416.562C223.727 416.88 223.888 417.307 223.977 417.844L222.602 418.031C222.539 417.604 222.357 417.271 222.055 417.031C221.758 416.792 221.336 416.672 220.789 416.672C220.143 416.672 219.682 416.779 219.406 416.992C219.13 417.206 218.992 417.456 218.992 417.742C218.992 417.924 219.049 418.089 219.164 418.234C219.279 418.385 219.458 418.51 219.703 418.609C219.844 418.661 220.258 418.781 220.945 418.969C221.94 419.234 222.633 419.453 223.023 419.625C223.419 419.792 223.729 420.036 223.953 420.359C224.177 420.682 224.289 421.083 224.289 421.562C224.289 422.031 224.151 422.474 223.875 422.891C223.604 423.302 223.211 423.622 222.695 423.852C222.18 424.076 221.596 424.188 220.945 424.188C219.867 424.188 219.044 423.964 218.477 423.516C217.914 423.068 217.555 422.404 217.398 421.523ZM225.398 421.523L226.789 421.305C226.867 421.862 227.083 422.289 227.438 422.586C227.797 422.883 228.297 423.031 228.938 423.031C229.583 423.031 230.062 422.901 230.375 422.641C230.688 422.375 230.844 422.065 230.844 421.711C230.844 421.393 230.706 421.143 230.43 420.961C230.237 420.836 229.758 420.677 228.992 420.484C227.961 420.224 227.245 420 226.844 419.812C226.448 419.62 226.146 419.357 225.938 419.023C225.734 418.685 225.633 418.312 225.633 417.906C225.633 417.536 225.716 417.195 225.883 416.883C226.055 416.565 226.286 416.302 226.578 416.094C226.797 415.932 227.094 415.797 227.469 415.688C227.849 415.573 228.255 415.516 228.688 415.516C229.339 415.516 229.909 415.609 230.398 415.797C230.893 415.984 231.258 416.24 231.492 416.562C231.727 416.88 231.888 417.307 231.977 417.844L230.602 418.031C230.539 417.604 230.357 417.271 230.055 417.031C229.758 416.792 229.336 416.672 228.789 416.672C228.143 416.672 227.682 416.779 227.406 416.992C227.13 417.206 226.992 417.456 226.992 417.742C226.992 417.924 227.049 418.089 227.164 418.234C227.279 418.385 227.458 418.51 227.703 418.609C227.844 418.661 228.258 418.781 228.945 418.969C229.94 419.234 230.633 419.453 231.023 419.625C231.419 419.792 231.729 420.036 231.953 420.359C232.177 420.682 232.289 421.083 232.289 421.562C232.289 422.031 232.151 422.474 231.875 422.891C231.604 423.302 231.211 423.622 230.695 423.852C230.18 424.076 229.596 424.188 228.945 424.188C227.867 424.188 227.044 423.964 226.477 423.516C225.914 423.068 225.555 422.404 225.398 421.523ZM239.641 421.328L241.094 421.508C240.865 422.357 240.44 423.016 239.82 423.484C239.201 423.953 238.409 424.188 237.445 424.188C236.232 424.188 235.268 423.815 234.555 423.07C233.846 422.32 233.492 421.271 233.492 419.922C233.492 418.526 233.852 417.443 234.57 416.672C235.289 415.901 236.221 415.516 237.367 415.516C238.477 415.516 239.383 415.893 240.086 416.648C240.789 417.404 241.141 418.466 241.141 419.836C241.141 419.919 241.138 420.044 241.133 420.211H234.945C234.997 421.122 235.255 421.82 235.719 422.305C236.182 422.789 236.76 423.031 237.453 423.031C237.969 423.031 238.409 422.896 238.773 422.625C239.138 422.354 239.427 421.922 239.641 421.328ZM235.023 419.055H239.656C239.594 418.357 239.417 417.833 239.125 417.484C238.677 416.943 238.096 416.672 237.383 416.672C236.737 416.672 236.193 416.888 235.75 417.32C235.312 417.753 235.07 418.331 235.023 419.055ZM248.25 424V422.953C247.724 423.776 246.951 424.188 245.93 424.188C245.268 424.188 244.659 424.005 244.102 423.641C243.549 423.276 243.12 422.768 242.812 422.117C242.51 421.461 242.359 420.708 242.359 419.859C242.359 419.031 242.497 418.281 242.773 417.609C243.049 416.932 243.464 416.414 244.016 416.055C244.568 415.695 245.185 415.516 245.867 415.516C246.367 415.516 246.812 415.622 247.203 415.836C247.594 416.044 247.911 416.318 248.156 416.656V412.547H249.555V424H248.25ZM243.805 419.859C243.805 420.922 244.029 421.716 244.477 422.242C244.924 422.768 245.453 423.031 246.062 423.031C246.677 423.031 247.198 422.781 247.625 422.281C248.057 421.776 248.273 421.008 248.273 419.977C248.273 418.841 248.055 418.008 247.617 417.477C247.18 416.945 246.641 416.68 246 416.68C245.375 416.68 244.852 416.935 244.43 417.445C244.013 417.956 243.805 418.76 243.805 419.859Z" fill="#131821"/>
    <circle cx="23" cy="331" r="22" stroke="#E2E3E4" stroke-width="2"/>
    <path opacity="0.3" d="M23.0039 336C21.0569 336 18.556 335.97 17.543 335.913C16.615 335.849 16.1287 335.732 15.6787 334.935C15.2287 334.138 15 332.735 15 330.507V330.497C15 328.237 15.2087 326.869 15.6787 326.061C16.1127 325.294 16.5839 325.147 17.5449 325.092C18.5659 325.024 21.1239 325 23.0039 325C24.8839 325 27.435 325.024 28.458 325.092C29.419 325.147 29.8913 325.292 30.3203 326.061C30.7913 326.861 31.001 328.228 31.001 330.499V330.506C31.001 332.778 30.7923 334.145 30.3223 334.937C29.8923 335.699 29.422 335.849 28.458 335.913C27.448 335.969 24.9499 336 23.0039 336ZM21.0039 327.5V333.5L26.0039 330.5L21.0039 327.5Z" fill="#131821"/>
    <g>
        <circle cx="119" cy="331" r="23" fill="#FF0000"/>
    </g>
    <path d="M119.004 336C117.057 336 114.556 335.97 113.543 335.913C112.615 335.849 112.129 335.732 111.679 334.935C111.229 334.138 111 332.735 111 330.507V330.497C111 328.237 111.209 326.869 111.679 326.061C112.113 325.294 112.584 325.147 113.545 325.092C114.566 325.024 117.124 325 119.004 325C120.884 325 123.435 325.024 124.458 325.092C125.419 325.147 125.891 325.292 126.32 326.061C126.791 326.861 127.001 328.228 127.001 330.499V330.506C127.001 332.778 126.792 334.145 126.322 334.937C125.892 335.699 125.422 335.849 124.458 335.913C123.448 335.969 120.95 336 119.004 336ZM117.004 327.5V333.5L122.004 330.5L117.004 327.5Z" fill="white"/>
    <g>
        <circle cx="215" cy="331" r="23" fill="#CC0000"/>
    </g>
    <path d="M215.004 336C213.057 336 210.556 335.97 209.543 335.913C208.615 335.849 208.129 335.732 207.679 334.935C207.229 334.138 207 332.735 207 330.507V330.497C207 328.237 207.209 326.869 207.679 326.061C208.113 325.294 208.584 325.147 209.545 325.092C210.566 325.024 213.124 325 215.004 325C216.884 325 219.435 325.024 220.458 325.092C221.419 325.147 221.891 325.292 222.32 326.061C222.791 326.861 223.001 328.228 223.001 330.499V330.506C223.001 332.778 222.792 334.145 222.322 334.937C221.892 335.699 221.422 335.849 220.458 335.913C219.448 335.969 216.95 336 215.004 336ZM213.004 327.5V333.5L218.004 330.5L213.004 327.5Z" fill="white"/>
    <circle cx="23" cy="235" r="22" stroke="#E2E3E4" stroke-width="2"/>
    <path opacity="0.3" d="M31 230.538C30.3981 230.8 29.7616 230.975 29.11 231.056C29.7967 230.648 30.3101 230.003 30.553 229.243C29.91 229.624 29.2065 229.893 28.473 230.037C28.0232 229.557 27.4395 229.223 26.7977 229.079C26.1559 228.936 25.4856 228.988 24.874 229.23C24.2623 229.472 23.7375 229.892 23.3677 230.436C22.9978 230.98 22.8 231.622 22.8 232.28C22.7974 232.531 22.8229 232.782 22.876 233.028C21.5711 232.964 20.2942 232.626 19.129 232.035C17.9638 231.444 16.9364 230.614 16.114 229.599C15.6919 230.32 15.5611 231.176 15.7484 231.991C15.9358 232.806 16.4271 233.518 17.122 233.983C16.6031 233.97 16.0948 233.833 15.64 233.583V233.619C15.6418 234.376 15.9039 235.11 16.3824 235.696C16.8609 236.283 17.5267 236.688 18.268 236.842C17.9874 236.916 17.6982 236.952 17.408 236.95C17.1996 236.954 16.9914 236.935 16.787 236.894C16.9989 237.545 17.4075 238.114 17.9564 238.523C18.5053 238.933 19.1676 239.162 19.852 239.179C18.691 240.087 17.2591 240.58 15.785 240.579C15.5225 240.578 15.2603 240.561 15 240.527C16.4999 241.493 18.2477 242.005 20.032 241.999C21.2602 242.007 22.4779 241.772 23.6143 241.306C24.7507 240.84 25.7832 240.152 26.6518 239.284C27.5204 238.416 28.2078 237.383 28.6741 236.247C29.1404 235.111 29.3762 233.893 29.368 232.665C29.368 232.52 29.363 232.38 29.356 232.241C30.003 231.778 30.5601 231.201 31 230.538Z" fill="#131821"/>
    <g>
        <circle cx="119" cy="235" r="23" fill="#1DA1F2"/>
    </g>
    <path d="M127 230.538C126.398 230.8 125.762 230.975 125.11 231.056C125.797 230.648 126.31 230.003 126.553 229.243C125.91 229.624 125.207 229.893 124.473 230.037C124.023 229.557 123.439 229.223 122.798 229.079C122.156 228.936 121.486 228.988 120.874 229.23C120.262 229.472 119.738 229.892 119.368 230.436C118.998 230.98 118.8 231.622 118.8 232.28C118.797 232.531 118.823 232.782 118.876 233.028C117.571 232.964 116.294 232.626 115.129 232.035C113.964 231.444 112.936 230.614 112.114 229.599C111.692 230.32 111.561 231.176 111.748 231.991C111.936 232.806 112.427 233.518 113.122 233.983C112.603 233.97 112.095 233.833 111.64 233.583V233.619C111.642 234.376 111.904 235.11 112.382 235.696C112.861 236.283 113.527 236.688 114.268 236.842C113.987 236.916 113.698 236.952 113.408 236.95C113.2 236.954 112.991 236.935 112.787 236.894C112.999 237.545 113.407 238.114 113.956 238.523C114.505 238.933 115.168 239.162 115.852 239.179C114.691 240.087 113.259 240.58 111.785 240.579C111.522 240.578 111.26 240.561 111 240.527C112.5 241.493 114.248 242.005 116.032 241.999C117.26 242.007 118.478 241.772 119.614 241.306C120.751 240.84 121.783 240.152 122.652 239.284C123.52 238.416 124.208 237.383 124.674 236.247C125.14 235.111 125.376 233.893 125.368 232.665C125.368 232.52 125.363 232.38 125.356 232.241C126.003 231.778 126.56 231.201 127 230.538Z" fill="white"/>
    <g>
        <circle cx="215" cy="235" r="23" fill="#177FBF"/>
    </g>
    <path d="M223 230.538C222.398 230.8 221.762 230.975 221.11 231.056C221.797 230.648 222.31 230.003 222.553 229.243C221.91 229.624 221.207 229.893 220.473 230.037C220.023 229.557 219.439 229.223 218.798 229.079C218.156 228.936 217.486 228.988 216.874 229.23C216.262 229.472 215.738 229.892 215.368 230.436C214.998 230.98 214.8 231.622 214.8 232.28C214.797 232.531 214.823 232.782 214.876 233.028C213.571 232.964 212.294 232.626 211.129 232.035C209.964 231.444 208.936 230.614 208.114 229.599C207.692 230.32 207.561 231.176 207.748 231.991C207.936 232.806 208.427 233.518 209.122 233.983C208.603 233.97 208.095 233.833 207.64 233.583V233.619C207.642 234.376 207.904 235.11 208.382 235.696C208.861 236.283 209.527 236.688 210.268 236.842C209.987 236.916 209.698 236.952 209.408 236.95C209.2 236.954 208.991 236.935 208.787 236.894C208.999 237.545 209.407 238.114 209.956 238.523C210.505 238.933 211.168 239.162 211.852 239.179C210.691 240.087 209.259 240.58 207.785 240.579C207.522 240.578 207.26 240.561 207 240.527C208.5 241.493 210.248 242.005 212.032 241.999C213.26 242.007 214.478 241.772 215.614 241.306C216.751 240.84 217.783 240.152 218.652 239.284C219.52 238.416 220.208 237.383 220.674 236.247C221.14 235.111 221.376 233.893 221.368 232.665C221.368 232.52 221.363 232.38 221.356 232.241C222.003 231.778 222.56 231.201 223 230.538Z" fill="white"/>
    <circle cx="23" cy="139" r="22" stroke="#E2E3E4" stroke-width="2"/>
    <path opacity="0.3" d="M16.3514 145.65C14.8354 144.134 15.0085 142.108 15.0085 138.996C15.0085 135.956 14.8084 133.882 16.3514 132.344C17.2591 131.493 18.4631 131.028 19.7075 131.051C21.1805 130.985 24.8274 130.982 26.2994 131.051C29.3104 131.19 30.8184 132.892 30.9504 135.702C31.0154 137.174 31.0194 140.82 30.9504 142.293C30.8414 144.672 29.7224 145.993 28.2394 146.572C27.1504 146.994 26.0865 146.992 23.0035 146.992C22.3785 146.992 21.7925 147.001 21.2425 147.001C19.1485 146.999 17.5744 146.873 16.3514 145.65ZM28.6295 144.631C29.6215 143.631 29.5585 142.291 29.5585 138.996C29.5585 136.861 29.5505 136.608 29.5115 135.765C29.3445 132.065 26.5565 132.44 23.0045 132.44L22.9734 132.42C20.8364 132.42 20.5854 132.431 19.7364 132.46C16.0364 132.65 16.4195 135.303 16.4195 138.985C16.4195 141.708 16.2195 143.503 17.3395 144.621C18.3145 145.599 19.6505 145.549 22.9835 145.549C26.2215 145.55 27.6215 145.639 28.6295 144.631ZM18.9015 138.999C18.9008 138.46 19.0066 137.925 19.2127 137.427C19.4188 136.929 19.7212 136.476 20.1027 136.095C20.4841 135.713 20.937 135.411 21.4355 135.205C21.9339 134.999 22.4681 134.893 23.0074 134.894C24.0962 134.894 25.1403 135.326 25.9102 136.096C26.68 136.866 27.1125 137.91 27.1125 138.999C27.1109 140.088 26.6769 141.131 25.9059 141.9C25.135 142.669 24.0903 143.1 23.0015 143.099C21.9141 143.099 20.8713 142.667 20.1024 141.898C19.3335 141.129 18.9015 140.086 18.9015 138.999ZM20.3415 138.999C20.3414 139.349 20.4102 139.695 20.5441 140.019C20.6779 140.342 20.8742 140.637 21.1216 140.884C21.3691 141.132 21.663 141.328 21.9864 141.462C22.3098 141.596 22.6564 141.665 23.0065 141.665C23.3565 141.665 23.7031 141.596 24.0265 141.462C24.3499 141.328 24.6437 141.132 24.8912 140.884C25.1386 140.637 25.3348 140.342 25.4685 140.019C25.6022 139.695 25.6709 139.349 25.6705 138.999C25.6706 138.649 25.6018 138.303 25.468 137.979C25.3341 137.656 25.1379 137.362 24.8905 137.115C24.6431 136.868 24.3493 136.671 24.0261 136.537C23.7028 136.404 23.3563 136.335 23.0065 136.335C22.6563 136.334 22.3094 136.403 21.9858 136.536C21.6621 136.67 21.3679 136.866 21.1201 137.114C20.8723 137.361 20.6758 137.655 20.5416 137.978C20.4075 138.302 20.3384 138.649 20.3384 138.999H20.3415ZM26.3155 134.732C26.3156 134.606 26.3405 134.481 26.3889 134.365C26.4372 134.249 26.5079 134.143 26.597 134.054C26.6862 133.965 26.792 133.895 26.9084 133.847C27.0248 133.798 27.1495 133.774 27.2754 133.774C27.5296 133.774 27.7734 133.875 27.9532 134.055C28.1331 134.234 28.2342 134.478 28.2344 134.732C28.2346 134.858 28.2099 134.983 28.1617 135.099C28.1136 135.215 28.0429 135.321 27.9539 135.41C27.8648 135.5 27.759 135.57 27.6426 135.618C27.5262 135.666 27.4014 135.691 27.2754 135.691C27.1489 135.691 27.0236 135.667 26.9066 135.619C26.7895 135.57 26.6832 135.5 26.5937 135.41C26.5042 135.321 26.4333 135.214 26.385 135.098C26.3367 134.981 26.312 134.855 26.3124 134.729L26.3155 134.732Z" fill="#131821"/>
    <g>
        <circle cx="119" cy="139" r="23" fill="#C13584"/>
    </g>
    <path d="M112.351 145.65C110.835 144.134 111.008 142.108 111.008 138.996C111.008 135.956 110.808 133.882 112.351 132.344C113.259 131.493 114.463 131.028 115.707 131.051C117.18 130.985 120.827 130.982 122.299 131.051C125.31 131.19 126.818 132.892 126.95 135.702C127.015 137.174 127.019 140.82 126.95 142.293C126.841 144.672 125.722 145.993 124.239 146.572C123.15 146.994 122.086 146.992 119.003 146.992C118.378 146.992 117.792 147.001 117.242 147.001C115.148 146.999 113.574 146.873 112.351 145.65ZM124.629 144.631C125.621 143.631 125.558 142.291 125.558 138.996C125.558 136.861 125.55 136.608 125.511 135.765C125.344 132.065 122.556 132.44 119.004 132.44L118.973 132.42C116.836 132.42 116.585 132.431 115.736 132.46C112.036 132.65 112.419 135.303 112.419 138.985C112.419 141.708 112.219 143.503 113.339 144.621C114.314 145.599 115.65 145.549 118.983 145.549C122.221 145.55 123.621 145.639 124.629 144.631ZM114.901 138.999C114.901 138.46 115.007 137.925 115.213 137.427C115.419 136.929 115.721 136.476 116.103 136.095C116.484 135.713 116.937 135.411 117.435 135.205C117.934 134.999 118.468 134.893 119.007 134.894C120.096 134.894 121.14 135.326 121.91 136.096C122.68 136.866 123.112 137.91 123.112 138.999C123.111 140.088 122.677 141.131 121.906 141.9C121.135 142.669 120.09 143.1 119.001 143.099C117.914 143.099 116.871 142.667 116.102 141.898C115.333 141.129 114.901 140.086 114.901 138.999ZM116.341 138.999C116.341 139.349 116.41 139.695 116.544 140.019C116.678 140.342 116.874 140.637 117.122 140.884C117.369 141.132 117.663 141.328 117.986 141.462C118.31 141.596 118.656 141.665 119.006 141.665C119.357 141.665 119.703 141.596 120.027 141.462C120.35 141.328 120.644 141.132 120.891 140.884C121.139 140.637 121.335 140.342 121.469 140.019C121.602 139.695 121.671 139.349 121.67 138.999C121.671 138.649 121.602 138.303 121.468 137.979C121.334 137.656 121.138 137.362 120.891 137.115C120.643 136.868 120.349 136.671 120.026 136.537C119.703 136.404 119.356 136.335 119.006 136.335C118.656 136.334 118.309 136.403 117.986 136.536C117.662 136.67 117.368 136.866 117.12 137.114C116.872 137.361 116.676 137.655 116.542 137.978C116.407 138.302 116.338 138.649 116.338 138.999H116.341ZM122.315 134.732C122.316 134.606 122.341 134.481 122.389 134.365C122.437 134.249 122.508 134.143 122.597 134.054C122.686 133.965 122.792 133.895 122.908 133.847C123.025 133.798 123.15 133.774 123.275 133.774C123.53 133.774 123.773 133.875 123.953 134.055C124.133 134.234 124.234 134.478 124.234 134.732C124.235 134.858 124.21 134.983 124.162 135.099C124.114 135.215 124.043 135.321 123.954 135.41C123.865 135.5 123.759 135.57 123.643 135.618C123.526 135.666 123.401 135.691 123.275 135.691C123.149 135.691 123.024 135.667 122.907 135.619C122.79 135.57 122.683 135.5 122.594 135.41C122.504 135.321 122.433 135.214 122.385 135.098C122.337 134.981 122.312 134.855 122.312 134.729L122.315 134.732Z" fill="white"/>
    <g>
        <circle cx="215" cy="139" r="23" fill="#8F2762"/>
    </g>
    <path d="M208.351 145.65C206.835 144.134 207.008 142.108 207.008 138.996C207.008 135.956 206.808 133.882 208.351 132.344C209.259 131.493 210.463 131.028 211.707 131.051C213.18 130.985 216.827 130.982 218.299 131.051C221.31 131.19 222.818 132.892 222.95 135.702C223.015 137.174 223.019 140.82 222.95 142.293C222.841 144.672 221.722 145.993 220.239 146.572C219.15 146.994 218.086 146.992 215.003 146.992C214.378 146.992 213.792 147.001 213.242 147.001C211.148 146.999 209.574 146.873 208.351 145.65ZM220.629 144.631C221.621 143.631 221.558 142.291 221.558 138.996C221.558 136.861 221.55 136.608 221.511 135.765C221.344 132.065 218.556 132.44 215.004 132.44L214.973 132.42C212.836 132.42 212.585 132.431 211.736 132.46C208.036 132.65 208.419 135.303 208.419 138.985C208.419 141.708 208.219 143.503 209.339 144.621C210.314 145.599 211.65 145.549 214.983 145.549C218.221 145.55 219.621 145.639 220.629 144.631ZM210.901 138.999C210.901 138.46 211.007 137.925 211.213 137.427C211.419 136.929 211.721 136.476 212.103 136.095C212.484 135.713 212.937 135.411 213.435 135.205C213.934 134.999 214.468 134.893 215.007 134.894C216.096 134.894 217.14 135.326 217.91 136.096C218.68 136.866 219.112 137.91 219.112 138.999C219.111 140.088 218.677 141.131 217.906 141.9C217.135 142.669 216.09 143.1 215.001 143.099C213.914 143.099 212.871 142.667 212.102 141.898C211.333 141.129 210.901 140.086 210.901 138.999ZM212.341 138.999C212.341 139.349 212.41 139.695 212.544 140.019C212.678 140.342 212.874 140.637 213.122 140.884C213.369 141.132 213.663 141.328 213.986 141.462C214.31 141.596 214.656 141.665 215.006 141.665C215.357 141.665 215.703 141.596 216.027 141.462C216.35 141.328 216.644 141.132 216.891 140.884C217.139 140.637 217.335 140.342 217.469 140.019C217.602 139.695 217.671 139.349 217.67 138.999C217.671 138.649 217.602 138.303 217.468 137.979C217.334 137.656 217.138 137.362 216.891 137.115C216.643 136.868 216.349 136.671 216.026 136.537C215.703 136.404 215.356 136.335 215.006 136.335C214.656 136.334 214.309 136.403 213.986 136.536C213.662 136.67 213.368 136.866 213.12 137.114C212.872 137.361 212.676 137.655 212.542 137.978C212.407 138.302 212.338 138.649 212.338 138.999H212.341ZM218.315 134.732C218.316 134.606 218.341 134.481 218.389 134.365C218.437 134.249 218.508 134.143 218.597 134.054C218.686 133.965 218.792 133.895 218.908 133.847C219.025 133.798 219.15 133.774 219.275 133.774C219.53 133.774 219.773 133.875 219.953 134.055C220.133 134.234 220.234 134.478 220.234 134.732C220.235 134.858 220.21 134.983 220.162 135.099C220.114 135.215 220.043 135.321 219.954 135.41C219.865 135.5 219.759 135.57 219.643 135.618C219.526 135.666 219.401 135.691 219.275 135.691C219.149 135.691 219.024 135.667 218.907 135.619C218.79 135.57 218.683 135.5 218.594 135.41C218.504 135.321 218.433 135.214 218.385 135.098C218.337 134.981 218.312 134.855 218.312 134.729L218.315 134.732Z" fill="white"/>
    <circle cx="23" cy="43" r="22" stroke="#E2E3E4" stroke-width="2"/>
    <path opacity="0.3" d="M24 40V38.5C24 38.2348 24.1054 37.9804 24.2929 37.7929C24.4804 37.6054 24.7348 37.5 25 37.5H26V35H24C23.2044 35 22.4413 35.3161 21.8787 35.8787C21.3161 36.4413 21 37.2044 21 38V40H19V43H21V51H24V43H26L27 40H24Z" fill="#131821"/>
    <g>
        <circle cx="119" cy="43" r="23" fill="#4267B2"/>
    </g>
    <path d="M120 40V38.5C120 38.2348 120.105 37.9804 120.293 37.7929C120.48 37.6054 120.735 37.5 121 37.5H122V35H120C119.204 35 118.441 35.3161 117.879 35.8787C117.316 36.4413 117 37.2044 117 38V40H115V43H117V51H120V43H122L123 40H120Z" fill="white"/>
    <g>
        <circle cx="215" cy="43" r="23" fill="#2F4A80"/>
    </g>
    <path d="M216 40V38.5C216 38.2348 216.105 37.9804 216.293 37.7929C216.48 37.6054 216.735 37.5 217 37.5H218V35H216C215.204 35 214.441 35.3161 213.879 35.8787C213.316 36.4413 213 37.2044 213 38V40H211V43H213V51H216V43H218L219 40H216Z" fill="white"/>
</svg>
